ply
format ascii 1.0
element vertex 1095
property float x
property float y
property float z
property uchar diffuse_red
property uchar diffuse_green
property uchar diffuse_blue
end_header
3.76469 2.18187 4.28775 109 105 93
3.58883 2.70783 4.01292 22 19 16
3.98341 1.79487 4.23208 145 140 130
3.75513 2.0991 4.37502 113 111 99
3.80827 2.35616 4.17117 211 202 191
3.7811 2.41674 3.89218 211 197 190
4.05271 1.70786 4.05224 137 128 119
4.03497 1.92426 3.89101 225 209 203
4.07727 1.59339 4.10434 5 1 1
4.07014 1.8306 3.89717 212 200 199
3.71988 2.5718 4.11419 118 109 101
3.58848 2.59761 3.94506 226 217 210
3.99419 2.0595 3.81858 213 198 186
3.99653 1.96925 3.95348 140 129 120
4.08096 1.60913 4.00245 208 200 195
4.01558 1.84499 4.12626 142 132 123
4.04787 1.90569 3.84253 7 6 0
3.86089 2.29618 3.72514 225 210 200
4.05379 1.97948 3.79444 211 197 184
3.90889 2.22832 3.71824 221 206 189
3.516 2.64775 4.40205 115 113 97
3.81626 2.15904 4.03953 222 210 201
3.89349 2.26595 3.8796 236 222 209
3.88973 2.26493 3.87978 236 222 209
3.82638 2.39603 3.85529 105 94 90
4.00065 2.01533 3.92076 160 148 142
3.84982 2.33421 4.1361 92 79 68
3.96237 2.09942 3.7541 219 200 177
3.52599 2.61384 4.08197 137 132 121
3.88966 2.22427 3.74991 139 126 124
3.79858 2.1807 4.0646 152 144 136
4.00625 1.56451 4.1909 137 128 124
3.48186 2.66306 4.06852 28 21 14
3.99798 1.73254 4.14103 173 164 158
4.04188 1.76945 3.99678 218 205 194
3.52846 2.66711 3.99918 19 11 3
3.98697 1.92919 3.94797 177 166 162
3.93428 2.17518 3.72687 7 4 7
3.84323 2.15728 4.00465 188 178 173
3.91138 2.23156 3.87394 98 87 85
4.0011 1.90152 3.91629 175 163 159
3.51474 2.62409 3.96914 197 190 180
4.01075 1.63114 4.16556 176 167 162
3.97268 1.70384 4.3643 133 131 118
3.51542 2.64006 4.33197 137 134 119
3.63597 2.57951 3.93455 66 57 46
3.80906 2.42563 3.86152 220 206 195
3.53841 2.59849 3.99034 120 114 106
3.72204 2.4794 3.75366 181 169 162
3.71623 2.59103 4.17125 220 211 198
3.74319 2.52658 4.23772 224 217 201
3.98326 2.0587 3.92796 244 229 211
3.5274 2.6821 4.23415 145 142 128
3.53032 2.69091 4.21247 96 93 80
3.84205 2.27479 4.09024 96 86 75
3.55938 2.72441 4.15866 66 66 59
3.87364 2.29887 3.86248 119 107 97
3.7815 2.25873 4.15251 128 121 111
3.84495 2.25039 4.05782 99 89 82
3.84187 2.24763 4.05471 99 89 82
3.7717 2.55478 4.17831 108 97 83
3.62045 2.54275 3.78973 110 100 92
3.55729 2.72883 4.1897 71 66 59
3.90956 2.18575 3.7765 174 163 159
3.53857 2.64825 4.16771 147 139 125
3.62628 2.56499 3.85421 77 69 63
3.71607 2.49033 3.78906 170 158 152
3.8492 2.34247 3.72723 145 134 131
3.84512 2.34222 3.72312 145 134 131
3.5596 2.62649 3.94741 69 59 47
3.65529 2.59428 3.88756 91 82 72
3.75281 2.58074 4.18476 127 118 106
3.54178 2.58497 3.96398 193 187 177
3.83478 2.26625 4.1037 156 146 137
3.51821 2.63899 4.31368 143 138 121
3.62907 2.56178 3.79262 120 111 107
3.81214 2.39558 4.16818 182 173 162
3.62744 2.72705 4.07538 63 61 59
3.62904 2.72946 4.0785 63 61 59
3.99513 1.91289 4.04467 144 131 118
3.49193 2.72271 4.49776 13 10 12
3.7549 2.52206 4.26813 153 144 135
3.90676 2.26388 3.85397 155 140 130
4.05403 1.76396 3.96417 205 193 188
3.87557 2.30143 3.84824 147 139 131
3.8187 2.40187 3.75437 156 142 133
3.54333 2.5906 3.95071 180 172 159
3.53852 2.58925 3.94696 180 172 159
3.62665 2.52331 3.81447 147 137 129
3.53559 2.70499 4.19559 96 93 82
3.99146 2.04762 3.92006 174 157 146
3.62785 2.52822 3.80803 145 134 125
3.76218 2.57469 4.17671 137 126 117
3.93824 1.9247 4.09761 239 226 216
3.93824 1.9247 4.09761 239 226 216
3.76335 2.55345 4.3475 198 190 178
3.82213 2.39706 3.78678 155 143 138
3.94455 2.13792 3.89655 144 133 131
3.52344 2.72192 4.22764 84 81 66
3.7564 2.091 4.79954 237 235 211
3.69991 2.23203 4.8356 222 222 198
3.70105 2.15097 4.90938 3 2 6
3.78663 2.33978 4.47616 120 117 104
3.88936 1.82565 4.73523 220 218 193
3.9318 1.81077 4.69448 5 5 5
4.03614 1.54424 4.17219 240 232 207
3.72589 2.18471 4.4993 108 106 93
3.74708 2.19323 4.41796 181 178 164
3.7809 2.15075 4.29491 96 94 82
3.86962 1.83358 4.81486 6 0 0
3.83831 2.04774 4.72514 122 120 105
4.00458 1.6699 4.53158 230 221 194
4.00403 1.65792 4.5989 7 2 0
3.9566 1.81428 4.38632 111 104 93
3.99906 1.69035 4.16151 167 158 152
3.88512 1.92011 4.58908 254 253 230
3.71833 2.16629 4.83384 125 121 95
3.85311 2.19952 3.97635 203 191 185
3.96206 1.79204 4.34328 190 185 173
3.65871 2.57373 4.83197 148 149 131
3.85339 1.86045 4.71386 155 156 140
3.88959 1.87249 4.60866 254 253 233
3.81437 2.09628 4.73689 88 89 73
3.83772 2.01068 4.69822 198 197 179
3.86461 1.88429 4.63084 157 155 140
3.71337 2.34552 4.70537 164 162 145
3.62253 2.51115 4.81331 102 101 82
3.97109 1.73615 4.34459 132 130 118
3.99009 1.66624 4.25219 163 159 148
3.73676 2.21754 4.79393 233 236 219
4.02729 1.64729 4.51669 13 6 4
3.84339 2.36418 3.83719 141 131 121
3.82566 2.37896 4.15635 228 215 200
3.98322 1.76135 4.16345 159 150 145
3.77458 2.48859 4.44002 123 122 110
4.03788 1.57867 4.31735 124 127 130
4.01096 1.98143 3.89911 195 184 178
3.99073 1.83118 4.1742 168 158 146
3.99664 1.64815 4.21527 147 143 132
3.74453 2.56465 4.24242 220 214 197
3.62021 2.47102 4.83286 137 138 119
3.97637 1.76662 4.23948 133 129 119
4.04026 1.95571 3.87408 189 177 176
3.73844 2.57181 4.30552 198 194 185
3.85671 1.95399 4.63883 189 187 172
3.92239 1.85745 4.49458 246 240 225
3.92462 1.85729 4.49622 246 240 225
3.90686 1.88011 4.51829 217 214 202
3.80476 2.2747 4.13899 124 116 104
3.92765 1.785 4.53629 150 148 134
3.72323 2.16336 4.80403 207 204 179
3.63556 2.43562 4.82298 139 137 117
3.91321 1.86189 4.51181 157 151 137
3.73256 2.55427 4.5029 191 188 174
3.97272 1.81187 4.30189 142 134 117
3.97787 1.6849 4.34722 153 151 138
3.8362 1.97108 4.6955 142 143 126
3.8524 1.9877 4.6653 175 176 162
3.82881 1.91213 4.74993 163 162 143
3.83164 1.98141 4.70695 185 184 164
3.89893 1.89635 4.58249 121 116 100
3.84314 1.96599 4.67966 181 180 166
3.75993 2.22478 4.76067 136 137 119
3.94097 1.82274 4.44376 208 205 190
3.84326 2.02991 4.6817 127 125 110
3.78109 2.54884 4.16575 148 139 127
3.63106 2.44799 4.83696 167 167 148
3.94704 1.82919 4.42801 202 199 182
3.80281 2.53905 4.67693 14 12 13
3.62931 2.43767 4.84548 135 136 117
3.62034 2.52981 4.83641 142 145 130
3.62564 2.46305 4.85386 140 141 126
3.99544 2.03915 3.93163 226 208 194
3.64079 2.51137 3.90306 199 190 182
3.51935 2.63035 4.01866 194 189 176
3.66125 2.62412 3.92238 15 9 2
3.83463 2.37217 3.7638 131 118 114
3.88803 2.28205 3.69601 5 2 9
3.84991 2.37254 3.71961 215 201 189
3.8906 2.23617 3.74585 143 129 126
3.89514 2.24084 3.74616 143 129 126
3.81542 2.40674 3.72793 148 138 131
3.9976 2.06251 3.77407 16 7 1
3.5218 2.65639 4.13959 160 152 138
3.56616 2.64588 3.96036 117 112 102
3.21159 2.77445 4.28504 15 14 12
3.74149 2.13648 4.46469 189 187 172
4.03531 1.61189 4.13837 251 238 227
4.05045 1.53242 4.29039 5 1 1
3.76493 2.22166 4.12339 167 159 150
3.75513 2.5307 4.43253 156 148 135
3.96605 2.08133 3.92319 247 231 216
3.97701 1.76557 4.23938 133 129 119
3.95824 2.10437 3.90906 119 107 99
3.62093 2.54108 3.83763 127 118 109
3.9681 1.82808 4.27606 211 200 182
4.0537 1.52963 4.36619 183 180 171
4.01664 1.59024 4.42346 129 130 116
3.75286 2.08153 4.32509 113 111 99
3.80357 2.22992 4.11588 168 159 150
4.09034 1.76153 3.93393 7 3 8
3.94483 1.83686 4.42514 215 208 192
3.78048 2.51317 4.19465 234 224 209
4.00832 1.85059 4.13594 130 118 109
3.72957 2.27419 4.70573 112 113 99
3.99416 1.85679 4.1647 255 246 222
3.81507 2.48238 4.25887 135 128 114
4.00788 1.83983 4.10097 161 151 142
3.9744 1.81788 4.26262 137 128 116
3.95696 1.82558 4.35664 147 140 129
3.95762 1.82437 4.35665 147 140 129
3.9035 1.89008 4.54267 140 140 126
3.85027 1.96743 4.65826 121 122 106
3.85152 1.96741 4.65878 121 122 106
3.78273 2.46624 3.85408 124 109 103
3.92164 1.79459 4.60063 161 160 143
4.00059 2.01035 3.94357 161 147 136
3.97757 1.69102 4.31561 163 159 148
3.98008 1.69024 4.31567 163 159 148
3.84189 2.38686 4.59432 116 113 97
3.81262 2.3951 4.1685 183 173 163
3.53641 2.66486 4.20862 166 161 149
3.63488 2.60234 4.19105 195 188 173
3.63841 2.60367 4.19289 195 188 173
4.00499 1.98749 3.94128 167 153 144
3.91137 1.88172 4.4886 166 166 153
3.83461 2.24087 4.06564 130 121 112
3.96565 1.81059 4.32567 182 174 161
3.7273 2.14188 4.49414 159 156 139
3.88207 2.49454 4.12207 110 100 88
3.62374 2.73829 4.07859 18 14 7
3.86474 1.92725 4.61296 161 156 139
3.86217 1.95733 4.61785 135 134 121
3.76246 2.2169 4.40306 89 85 74
3.83911 1.96985 4.69599 142 143 126
3.95163 1.84003 4.37214 185 178 162
3.6151 2.73898 4.08182 13 10 2
5.12429 3.70338 5.52059 2 0 1
5.12429 3.70338 5.52059 2 0 1
3.616 2.51891 3.81965 134 128 116
3.67672 2.33206 4.87253 6 4 4
3.67672 2.33206 4.87253 6 4 4
3.89168 1.83029 4.73761 218 216 192
3.76385 2.07898 4.26568 168 164 153
3.86317 1.89477 4.85723 114 110 84
3.93411 1.84545 4.46764 182 180 165
3.71645 2.16385 4.83352 119 118 92
3.74613 2.33681 4.65067 87 83 71
3.74648 2.54884 4.45643 212 203 194
3.7134 2.34523 4.7055 160 162 143
3.82998 2.0427 4.76376 142 142 121
3.8614 1.95854 4.61769 134 135 121
3.72474 2.15219 4.88141 117 115 94
3.78417 2.12006 4.7703 226 227 215
3.94006 1.82037 4.66348 138 133 109
4.00856 1.54678 4.21694 123 121 113
3.97265 1.79551 4.27224 170 164 154
3.95466 2.10757 3.89184 161 147 140
3.9711 1.70622 4.37773 149 147 134
3.96323 1.81184 4.32249 182 174 161
3.74921 2.43148 4.68555 84 84 73
3.62727 2.45768 4.8251 145 146 129
3.62637 2.59536 4.33765 199 193 182
3.86322 1.90501 4.72014 153 154 138
3.74386 2.18615 4.43353 174 171 156
3.78146 2.22361 4.38579 85 83 70
3.92529 1.89297 4.44962 165 163 150
4.04515 1.98078 3.79259 189 175 174
3.51782 2.70062 4.27288 132 129 115
4.04538 1.97864 3.78924 197 183 175
3.73151 2.53018 3.74571 17 8 14
3.77283 2.47839 3.84334 138 131 125
3.80289 2.03243 4.83009 13 5 2
3.98783 1.63187 4.31845 146 144 132
3.62215 2.61753 4.87116 10 10 4
3.80162 2.51426 4.37763 96 88 76
3.61835 2.64989 3.96706 80 73 67
3.53612 2.71848 4.19909 79 76 67
3.61585 2.47459 4.86647 170 171 151
3.78651 2.31269 4.18487 157 148 139
3.87978 1.94565 4.56864 135 138 124
3.54917 2.7057 4.1684 28 25 15
3.83092 2.12434 4.0293 206 193 184
3.75146 2.38462 4.66144 91 85 73
3.99737 1.83167 4.06636 144 135 130
3.76727 2.10958 4.24421 123 119 108
4.02953 1.54076 4.35038 150 149 144
3.71766 2.08891 4.84141 122 116 94
3.74719 2.54931 4.45623 199 195 183
3.73761 2.22778 4.64553 116 117 103
4.01032 1.5457 4.21722 124 121 115
3.9822 1.68056 4.29941 134 132 120
3.73794 2.4822 3.81784 147 136 133
3.52165 2.66103 4.10235 90 83 70
3.52299 2.64837 4.27051 152 145 131
3.53791 2.63268 4.11694 153 149 138
3.62349 2.54018 3.8138 125 115 108
3.63458 2.7403 4.07203 17 12 7
3.94555 2.13054 3.89598 151 142 140
3.17481 2.77913 4.25041 8 7 5
3.54343 2.76197 4.11177 5 1 1
3.68051 2.43784 4.79309 204 201 182
3.68208 2.44599 4.79303 204 201 182
3.81081 1.9815 4.48757 124 122 109
3.85795 2.48933 4.66794 6 4 5
3.83623 2.28958 4.05931 116 105 97
3.56635 2.60467 3.97209 182 173 158
3.79569 2.5799 4.13903 117 107 97
3.88353 2.34628 4.12098 96 84 72
3.79449 2.43044 3.89181 212 197 190
3.78649 2.43631 3.732 222 205 194
3.69636 2.53483 3.79149 222 208 199
4.04515 1.98078 3.79259 182 170 165
4.06685 1.76939 3.97078 207 193 192
4.03784 1.9768 3.7867 189 176 170
3.83198 2.29515 3.97678 138 127 123
3.76848 2.3088 4.21269 122 113 104
3.86283 2.28947 3.78469 141 130 126
3.81716 1.94044 4.76673 179 182 160
3.8527 2.51497 4.07663 155 142 133
3.87016 2.31064 4.05041 150 140 131
4.01248 1.79519 4.06382 158 149 139
3.78837 2.46815 3.69636 13 8 7
3.7387 2.36249 4.67746 192 192 178
3.57526 2.59601 3.92925 225 212 204
3.84041 2.3554 3.69589 11 4 5
3.76807 2.26118 4.45807 100 97 82
3.85421 2.38853 4.30384 153 145 134
3.78326 2.21362 4.2663 131 127 116
3.78695 2.30155 4.45156 133 129 117
3.78695 2.30155 4.45156 133 129 117
3.92104 2.42711 4.11694 103 90 80
3.64836 2.57916 3.90297 127 115 104
3.96881 1.73738 4.34403 130 128 116
3.82178 2.39719 4.62854 109 105 91
3.84855 2.3172 3.82671 147 137 129
3.8733 2.31594 4.32697 137 127 115
3.76416 2.50994 4.45695 221 215 201
3.76357 2.5097 4.45718 221 215 201
4.01946 1.6073 4.42052 144 144 131
4.02168 1.60747 4.42217 144 144 131
3.60852 2.58803 4.88757 110 106 87
3.58724 2.6255 4.13757 156 147 135
3.60414 2.6098 4.11148 158 150 139
3.82405 2.21517 4.04652 151 142 133
3.71575 2.18136 4.81446 146 140 112
3.63385 2.45664 4.88743 119 119 102
3.77829 2.53947 4.30825 154 146 135
3.29617 2.7275 4.51011 21 17 14
3.96873 1.6757 4.57645 129 123 93
3.97355 1.81474 4.38849 143 138 125
3.63738 2.6037 4.18508 197 187 176
3.96937 1.8225 4.30982 211 202 186
3.62607 2.44942 4.86017 150 151 136
3.79616 2.50295 4.29576 144 136 125
3.76532 2.52002 4.51584 146 144 129
3.75575 2.53318 4.2133 168 160 151
3.52417 2.60737 3.97023 151 141 138
3.5497 2.59018 3.98456 143 133 131
3.49854 2.65265 4.05594 101 91 73
3.67489 2.28861 4.86854 80 76 50
3.82523 2.39672 3.78814 157 144 137
3.7834 2.52985 4.40363 238 234 219
3.62026 2.48034 4.89344 120 121 92
3.84729 2.00651 4.67661 173 174 158
3.12383 2.82359 4.06199 2 0 1
3.91745 1.8907 4.44451 165 163 150
3.76193 2.07452 4.26432 169 166 154
3.74996 2.54447 4.30357 134 126 115
3.59718 2.69253 4.02387 17 8 3
3.95643 1.79043 4.43467 215 209 189
3.98083 2.05646 3.76576 21 10 5
3.75949 2.53813 4.50538 135 131 117
4.02452 2.91125 4.46209 19 15 14
3.83918 2.0664 4.6972 144 142 127
4.05127 1.92923 3.87972 249 222 196
3.95604 1.82649 4.40176 110 103 87
3.57566 2.63235 4.8309 17 16 12
3.29189 2.72197 4.4755 17 13 9
3.8117 2.05296 4.80724 232 226 194
3.78998 2.17641 4.38047 114 111 99
3.63003 2.5496 4.85255 129 132 117
3.96187 2.5873 4.81101 6 4 5
3.77328 2.54533 4.16313 151 141 132
3.7411 2.53315 4.73366 15 14 12
3.52823 2.68359 4.16846 97 92 74
3.77254 2.51198 4.28358 165 157 146
3.5246 2.61591 3.99188 166 157 157
3.8968 1.8849 4.56633 143 140 126
3.93327 1.83747 4.45435 158 156 141
3.58428 2.60312 4.52724 171 168 151
3.53191 2.67185 4.21707 158 150 140
3.84631 2.33103 4.13811 96 83 69
3.92004 1.79514 4.60081 161 161 143
3.79148 2.49819 4.27358 185 176 169
3.53672 2.71282 4.18826 69 67 55
3.78067 2.47724 3.85678 126 109 96
3.84304 2.4923 4.1521 115 103 91
3.77229 2.5355 4.31471 142 134 123
3.88562 2.43422 4.31951 158 150 139
3.54138 2.61718 4.29396 206 198 187
3.6624 2.60201 4.15669 216 206 196
3.70094 2.53108 3.99416 135 126 119
3.77562 2.52209 4.50893 132 128 116
3.76369 2.57913 4.17143 126 116 106
3.93813 1.75459 4.57715 159 158 140
3.59449 2.5971 4.5367 168 165 149
3.80974 2.29217 4.15657 224 211 202
3.54664 2.59431 4.0008 130 118 112
3.52063 2.65334 4.26926 152 145 134
3.77819 2.5157 4.40285 237 235 219
3.71663 2.19081 4.89839 18 7 0
3.85441 1.9535 4.63873 189 190 172
4.02101 1.52718 4.22645 154 145 118
3.96556 1.69763 4.52972 161 160 142
3.55506 2.6452 4.15669 144 135 126
3.79028 2.56029 4.58398 161 157 145
3.63032 2.54363 3.79984 116 106 103
3.7757 2.51588 4.2649 147 139 131
3.55451 2.70666 4.72299 14 13 11
3.84852 2.01006 4.77806 133 135 114
3.63193 2.56096 3.82827 74 63 59
3.75436 2.51607 4.4776 145 141 127
3.82966 2.28002 4.12124 135 127 114
3.63869 2.65899 4.90092 15 14 10
3.83311 2.41007 3.7977 174 160 157
3.82429 2.40729 3.79567 174 160 157
3.96036 1.82993 4.37206 141 136 119
3.84354 1.85997 4.7754 126 127 96
3.95443 1.84329 4.39811 174 168 149
3.71157 2.17387 4.87058 130 127 98
3.83885 2.2284 4.05021 142 132 123
3.93018 1.83064 4.46953 198 196 181
3.98843 1.68816 4.23728 146 144 132
4.00265 2.05334 3.78002 22 11 3
3.95936 2.0745 3.83686 155 141 138
3.89398 2.23858 3.7825 144 131 122
4.02491 1.64691 4.4941 140 133 115
3.41151 2.72556 4.197 11 6 10
3.68414 2.21692 4.89656 118 111 82
3.75669 2.54749 4.2223 172 162 152
3.17919 2.77175 4.25818 2 0 1
3.48723 2.63774 4.04626 128 119 106
3.76024 2.53465 4.2251 164 154 142
3.50324 2.73141 4.10817 9 3 3
4.22335 2.76676 4.72166 164 161 144
4.00508 1.90258 4.00759 148 142 130
4.00026 1.86764 4.1802 245 235 225
3.67736 2.531 3.78624 223 206 196
3.75851 2.07821 4.26629 167 163 152
4.07456 1.60126 4.10716 4 3 0
4.04257 1.52748 4.29084 1 3 0
4.06723 1.74999 3.92844 10 2 8
3.76746 2.44465 3.78278 139 128 123
3.84754 2.25904 4.07124 112 101 96
4.02039 1.9287 3.88598 226 212 194
3.55233 2.59326 4.00189 132 122 114
3.6193 2.56226 3.89057 130 117 108
3.73171 2.55916 4.54393 194 192 179
4.00299 2.01095 3.97318 255 241 224
4.00189 2.04754 3.77678 18 9 4
3.5677 2.60615 4.48541 171 168 153
4.01115 1.58376 4.31864 113 110 106
3.52216 2.62531 4.06913 128 119 111
3.56078 2.60049 4.01282 115 106 97
3.81327 2.48498 4.25608 137 128 118
3.5168 2.72256 4.29163 110 102 88
3.63057 2.56136 3.79563 122 110 101
3.74492 2.55907 4.34309 205 195 188
3.9728 1.68789 4.56906 130 131 114
3.92855 2.41499 4.56998 124 121 106
4.03912 1.55466 4.27229 137 129 108
3.78725 2.18742 4.37288 113 110 98
3.6247 2.54835 4.84335 128 129 110
3.64914 2.59403 3.91241 110 96 86
3.63491 2.73266 4.07875 59 55 50
3.7792 2.51322 4.28459 170 162 151
3.66801 2.2144 4.88251 130 125 94
3.51676 2.66175 4.08053 78 70 57
3.97465 1.80965 4.31557 197 191 171
3.70229 2.31481 4.84674 82 78 56
5.25847 3.64514 4.66129 3 1 2
3.94773 2.13102 3.87141 155 138 129
4.07964 1.87897 3.82159 4 0 0
3.51695 2.72329 4.25019 79 74 58
3.95782 1.80102 4.36204 142 137 126
4.09107 2.46629 4.85079 8 8 8
3.72666 2.34792 4.84458 130 127 105
3.63153 2.43688 4.82396 136 133 114
3.62987 2.44952 4.83721 170 169 150
3.53335 2.65706 4.21645 158 149 140
3.99711 1.89877 4.05661 198 187 169
4.04295 1.52396 4.28881 0 1 1
3.69154 2.52975 3.99293 135 126 118
4.03999 1.55068 4.3226 212 198 173
3.68057 2.27891 4.86143 109 104 79
3.64881 2.57771 3.86823 85 72 63
3.75548 2.55425 4.20686 173 167 156
3.73699 2.19658 4.30795 110 106 94
3.87114 1.91971 4.71903 167 169 150
3.72947 2.43719 4.80087 205 202 183
3.82313 2.22946 4.02472 128 119 110
3.88802 2.27365 3.89801 226 213 205
3.50569 2.628 4.01194 187 178 173
3.88238 1.83116 4.8147 4 3 5
3.71132 2.18327 4.90968 7 3 4
3.73546 2.18785 4.50041 109 107 94
3.54314 2.62976 4.51284 121 118 103
3.67013 2.61939 4.65726 126 124 108
3.65896 2.54413 3.77687 223 201 203
3.73325 2.33338 4.67727 195 194 175
3.82196 2.44361 4.45837 140 136 124
3.59031 2.59143 3.91152 17 10 7
3.92631 2.40107 4.08615 155 145 134
3.71024 2.60006 4.17894 222 210 202
3.80826 2.24623 4.17067 117 108 103
3.90769 2.33145 4.08043 142 132 122
3.83046 2.3464 4.15938 235 223 210
3.75529 2.54295 4.50971 131 127 115
3.55557 2.60355 3.93713 222 207 175
3.52585 2.62695 3.97222 208 189 173
3.9346 2.16884 3.86758 156 145 137
3.8242 2.4081 3.77343 200 187 179
3.75552 2.53462 4.44483 145 139 127
3.76202 2.53584 4.44442 145 139 127
3.95688 2.09866 3.89045 169 153 144
3.97799 1.70124 4.59193 138 138 118
3.49647 2.62767 4.01637 179 169 164
3.721 2.10782 4.86787 120 124 107
3.6978 2.80709 4.21768 10 6 6
3.74666 2.55072 4.45602 199 195 183
3.99974 1.61215 4.22964 137 133 121
4.04442 1.76313 4.07025 188 179 168
3.51106 2.74882 4.16373 3 1 1
3.71673 2.48121 4.94928 96 94 80
3.921 2.21378 3.78836 134 123 114
3.50403 2.65753 3.97603 13 6 3
3.54651 2.63561 3.94048 16 8 6
3.8504 1.8676 4.6703 171 170 155
2.82508 2.70286 4.1079 1 0 0
3.72411 2.4824 3.80875 146 135 130
3.79211 2.53446 4.16974 157 147 138
3.73856 2.33624 4.8921 5 5 5
3.94219 2.11739 3.87467 150 135 129
3.90396 2.48981 4.55783 171 168 153
3.9676 1.77977 4.4586 203 201 184
3.85326 2.48639 4.3988 114 107 93
3.75884 2.00188 4.3258 180 176 164
3.8604 1.90228 4.85326 110 111 96
3.5892 2.68182 4.87013 17 13 10
3.88065 2.26745 3.88848 234 219 212
3.49081 2.79811 4.03579 4 0 0
3.92688 1.85019 4.68262 227 225 196
3.62132 2.59839 4.54924 169 165 153
3.69307 2.41614 4.73223 217 216 195
3.88126 2.45875 4.50233 129 125 113
4.00435 2.04585 3.77423 11 7 5
3.84828 2.31541 3.72076 204 183 166
3.8377 1.87484 4.74361 186 188 165
2.98093 2.88863 4.00039 3 0 0
3.7358 2.08666 4.87823 132 132 107
3.96638 2.07324 3.84965 147 135 131
3.64084 2.50762 3.8321 130 118 117
3.59657 2.59465 4.03763 196 185 177
3.16078 2.78706 4.22638 4 0 1
3.85251 2.28786 4.09655 104 94 84
3.10894 2.83914 3.99533 1 0 0
3.8124 2.07 4.83185 209 199 168
3.77263 2.5126 4.22207 158 146 135
3.77576 2.51253 4.22101 158 146 135
3.74418 2.56509 4.24256 225 215 205
3.47731 2.71673 4.56402 19 15 14
4.02881 1.78401 4.08926 174 162 150
3.90933 1.80848 4.61856 138 137 117
3.63453 2.57905 3.83584 79 70 63
3.78936 2.50793 4.29251 140 132 121
3.59857 2.60275 4.09003 159 150 145
4.03069 1.56834 4.3159 121 121 124
3.62068 2.59382 4.07646 157 148 143
3.6874 2.73307 4.03645 72 63 53
3.62314 2.5338 4.83815 148 149 135
3.76324 2.40062 4.65964 90 87 74
3.51208 2.60972 5.03639 24 19 16
3.94929 1.83489 4.67203 172 168 145
3.95258 1.83496 4.41583 236 233 214
3.73955 2.55164 4.42971 202 193 186
3.55161 2.74961 4.12778 9 5 4
3.60867 2.53671 4.85598 155 156 138
3.74917 2.55778 4.22968 152 143 130
4.01595 1.5548 4.25759 136 127 112
3.72766 2.54985 4.51994 189 185 173
3.10201 2.79346 4.86504 6 6 6
3.98086 1.68498 4.33375 141 139 126
3.77494 2.2315 4.17305 116 107 102
4.0101 1.71294 4.62848 139 136 106
3.91123 2.32579 4.32335 136 128 115
3.63213 2.56675 3.84624 77 66 57
3.76688 2.52833 4.50692 131 128 115
3.76688 2.52833 4.50692 131 128 115
3.95502 1.81952 4.41619 215 212 195
3.70418 2.15443 4.29005 125 121 110
3.72102 2.50817 3.91558 216 201 197
3.72102 2.50817 3.91558 216 201 197
4.04551 1.64833 4.13868 238 232 218
4.00108 1.85961 4.17767 246 239 223
3.69817 2.53205 3.98755 136 127 122
4.02876 1.90439 3.85375 11 7 2
4.06038 1.60222 4.11183 5 2 9
3.88828 2.27849 3.72564 225 204 178
3.73496 2.16931 4.79014 231 229 207
3.87337 1.92535 4.58822 247 246 229
4.01289 1.84122 4.09998 168 159 144
3.94661 1.81861 4.69486 22 12 8
3.7854 2.45595 3.70164 12 7 5
4.0172 1.65987 4.53818 204 193 158
4.00617 1.67365 4.57536 139 136 111
4.06057 1.74787 3.98809 165 159 154
3.65467 2.66464 4.92574 16 15 10
3.5313 2.6066 4.02885 205 194 191
3.62685 2.51291 4.81425 103 103 87
3.78309 2.52341 4.37959 123 117 108
3.93416 1.76947 4.60593 126 127 109
3.98415 1.81032 4.18467 174 167 157
3.6415 2.60692 4.18507 204 190 181
3.77479 2.17128 4.93035 0 0 0
3.77479 2.17128 4.93035 0 0 0
3.43746 2.66422 4.74347 15 14 12
2.98355 2.77261 4.2402 7 3 4
3.62598 2.59843 4.08571 138 127 123
3.71533 2.49841 3.72964 3 1 2
3.51912 2.70791 4.24438 97 89 78
3.97827 1.66997 4.34673 153 151 138
3.97477 1.79231 4.27155 167 165 152
3.53534 2.66932 4.19929 142 132 122
3.85967 1.91591 4.71159 174 175 157
3.80254 2.28997 4.60842 102 102 88
3.70167 2.43739 4.91516 145 146 131
3.86025 1.98982 4.61437 134 135 119
3.88538 2.27345 3.89945 224 210 205
3.63769 2.43288 4.86994 127 126 108
4.01475 1.75504 4.10987 227 219 208
3.74982 2.47497 3.74066 185 170 152
3.93655 1.75896 4.57658 160 161 143
3.63776 2.57434 3.96187 223 206 198
3.64769 2.67279 5.02293 3 2 0
3.78303 2.2278 4.12325 173 164 159
3.76044 2.53961 4.39458 244 237 227
3.83177 2.07226 4.73351 113 111 98
3.82475 2.40835 3.77297 189 178 169
4.03081 1.57494 4.28105 115 115 101
4.00806 1.55703 4.24343 162 160 147
3.71073 2.17781 4.84535 120 119 101
3.98738 1.69816 4.60276 112 113 95
3.85228 2.1667 4.00157 195 184 180
3.90218 1.83856 4.64959 136 132 108
3.91281 1.86336 4.51123 145 143 125
3.46846 2.67343 4.76986 20 16 15
3.5964 2.5584 3.87731 95 81 72
4.73666 3.16868 4.23612 3 1 2
3.37036 2.32021 4.39658 4 3 1
3.42439 2.70405 4.46924 17 13 9
3.92088 1.79416 4.57947 145 144 126
3.91971 1.79453 4.5801 145 144 126
3.15443 2.73181 4.73547 7 3 3
3.37924 2.75801 4.73783 7 3 2
3.71281 2.51694 3.85159 136 125 118
3.59751 2.75792 4.57615 20 16 15
3.75311 2.55174 4.2312 153 143 131
3.81232 2.38449 3.7333 143 128 131
4.59685 3.15383 4.22878 8 4 3
3.53132 2.43304 4.80221 156 154 139
3.75103 2.46723 3.84043 145 133 121
4.02853 1.905 3.85418 11 5 3
4.02297 1.79084 4.05374 146 142 131
3.50739 2.72592 4.75234 12 8 6
3.97538 1.68867 4.3906 119 117 102
3.99533 1.80546 4.13796 179 175 168
3.53132 2.43304 4.80221 156 154 139
3.7252 2.57565 4.59053 198 191 175
3.90086 2.25553 3.73626 148 138 130
3.13131 2.71868 4.47158 11 5 5
3.66784 2.50624 4.71649 157 154 139
3.79636 2.48707 4.42645 125 117 108
3.64439 2.45574 4.7779 215 210 195
3.73132 2.08483 4.83737 121 120 102
3.54956 2.60301 3.9418 175 160 142
3.62749 2.65046 4.95951 17 16 12
3.77069 2.27219 4.17084 183 173 166
3.76722 2.2714 4.17287 183 173 166
3.83766 2.01386 4.69727 209 207 191
4.02685 1.58744 4.37878 140 140 128
3.59459 2.67582 5.02718 16 15 9
3.82393 2.50357 4.38818 123 115 104
3.7156 2.67347 5.01832 12 11 8
3.67876 2.60646 4.15622 221 211 209
3.96749 2.09588 3.90796 146 132 123
3.78117 2.51186 4.40061 227 218 212
4.01863 1.68746 4.13217 229 223 206
3.98294 1.63393 4.29046 135 135 121
3.83592 2.01966 4.67949 127 125 115
3.36961 2.74095 4.27035 18 12 12
3.87435 1.89906 4.58858 148 147 128
4.00858 1.73219 4.11816 218 208 193
4.02168 1.66271 4.50025 138 138 118
3.92767 1.80266 4.6257 153 152 131
3.52104 2.65686 4.12393 114 101 87
3.71031 2.68666 4.83668 12 11 9
3.52078 2.6214 3.98538 180 172 161
3.7941 2.04774 4.82318 171 165 131
3.71253 2.63939 4.72864 139 139 128
4.05459 1.98413 3.79104 171 163 160
3.54672 2.79716 4.59431 18 13 11
3.95929 1.73534 4.61044 120 118 103
3.50755 2.64462 4.08814 113 100 91
3.64014 2.8792 4.54335 11 7 6
3.17597 2.7756 4.24732 13 9 8
3.74815 2.56178 4.24259 223 213 205
3.78889 2.27647 4.62366 105 105 93
3.72875 2.53284 4.3208 153 143 133
4.02202 1.67226 4.51495 191 188 167
3.88177 2.27106 3.90306 214 204 197
4.03639 1.72617 4.06031 133 129 118
4.02562 1.9041 3.851 7 4 3
3.76136 2.58244 4.15527 129 116 107
3.66483 2.50786 4.71851 158 155 140
4.20225 2.71316 4.83224 3 2 0
3.7633 2.0805 4.31425 113 108 102
3.76689 2.07813 4.26295 176 171 165
3.83481 2.22552 4.01927 127 118 113
3.91057 2.21631 3.79194 126 119 109
3.8971 1.8851 4.5601 138 136 122
3.8767 1.85666 4.64572 231 230 207
3.79291 2.30225 4.44528 135 131 119
3.62136 2.60236 3.98222 138 126 117
3.54471 2.6492 4.15679 138 124 120
3.69958 2.50636 3.75914 13 6 2
3.79252 2.43972 3.69723 8 5 3
3.50938 2.61904 3.95976 29 12 5
3.89455 2.28673 3.751 140 131 128
3.76078 2.53215 4.37449 133 125 113
3.7421 2.56873 4.60832 199 191 181
3.42454 2.74562 4.45568 13 8 6
3.71444 2.5168 3.80807 134 123 115
3.76569 2.68346 4.92978 6 4 2
3.93283 1.83356 4.65352 134 133 113
4.01295 3.15516 4.09194 1 0 0
3.80837 2.37834 4.41266 120 112 99
3.62918 2.51608 4.80878 118 115 100
3.63455 2.49026 4.78261 187 183 169
3.99186 1.66796 4.30415 157 158 144
3.80602 2.3975 3.76853 154 142 131
3.60652 2.5699 3.86129 79 70 58
3.97913 1.80451 4.27072 162 160 147
3.87065 2.25934 3.90675 221 206 198
3.80003 2.34754 4.16037 213 205 193
3.64648 2.6089 3.88894 29 20 11
3.64648 2.6089 3.88894 29 20 11
3.97684 1.92802 4.07615 250 239 229
3.78007 2.51335 4.28331 177 167 157
3.9728 1.69044 4.33529 146 144 132
2.83269 2.11352 3.54511 3 4 4
3.9988 2.03131 3.89696 168 154 151
3.80794 2.01968 4.84277 6 5 3
3.92613 1.80646 4.62658 153 152 131
4.02717 1.60028 4.43178 135 134 126
3.9698 1.83285 4.31906 211 204 188
3.767 2.09543 4.21185 126 124 112
3.722 2.12696 4.51581 120 120 106
3.74375 2.54732 4.2931 130 122 111
3.93926 1.80466 4.63335 147 145 126
3.99072 1.91282 4.05675 225 210 192
3.75662 2.50576 4.4585 195 193 180
3.83688 2.03207 4.75524 136 137 120
3.79139 2.14794 4.76671 80 77 63
3.3904 2.69998 4.48026 10 6 5
3.7802 2.55154 4.1626 144 134 124
4.01333 1.68361 4.48359 124 123 111
3.78577 2.3182 4.1834 161 153 142
4.00436 1.58718 4.26403 160 155 148
3.62152 2.51861 3.82842 136 124 110
3.73998 2.23849 4.4639 106 104 90
3.83525 1.88855 4.79065 119 119 99
3.81912 2.32548 3.73653 169 157 151
3.80395 2.48039 4.24049 137 129 119
3.64726 2.59408 3.90747 111 103 91
3.5284 2.59916 4.0068 202 198 186
3.91274 1.83799 4.57309 179 177 162
3.91274 1.83799 4.57309 179 177 162
3.61845 2.61266 4.16226 211 204 190
3.9943 2.04857 3.91501 169 152 143
3.65822 2.51787 4.77169 144 140 121
4.07212 1.62283 4.13541 250 234 195
3.53425 2.61569 3.9477 87 81 65
3.51471 2.64954 4.13218 160 153 137
3.91856 1.84073 4.65111 122 117 93
3.7021 2.31125 4.8114 126 126 105
3.50889 2.64574 4.14488 139 132 116
3.7663 2.51711 4.51539 136 133 126
4.06689 1.64888 4.12603 154 142 127
4.00519 1.83551 4.15335 182 175 158
3.79869 2.5036 4.35605 98 90 77
3.82418 2.98663 4.48948 3 0 0
3.614 2.73698 4.73394 20 15 12
3.47145 2.7778 4.38295 14 8 8
3.6864 2.54797 4.12224 137 126 114
3.3622 2.68458 4.84047 17 12 11
3.81817 2.40154 3.85816 120 109 100
3.91954 1.80568 4.61558 134 133 113
3.86987 1.94606 4.59047 219 217 201
3.46476 2.70647 4.56715 20 14 13
3.77263 2.46912 4.60466 4 2 3
3.48233 2.73664 4.37807 21 15 14
4.09392 1.65149 4.10506 182 180 167
3.8181 2.42568 3.86769 214 205 193
3.62153 2.6174 4.81998 141 137 125
3.81945 2.4315 4.36599 160 149 136
3.62578 2.62077 4.83198 141 137 124
3.00942 2.73762 4.37009 11 7 6
3.60282 2.52012 4.90753 118 116 103
4.08438 1.60094 4.00017 165 160 138
3.70282 2.29951 4.84488 91 90 75
3.79724 2.50299 4.22572 201 193 182
3.90965 1.82557 4.70891 214 214 185
3.7722 2.2254 4.17354 114 107 98
3.75253 2.11542 4.46594 204 200 188
4.00652 1.97076 3.95315 146 138 128
3.32363 2.70346 4.70071 17 12 9
3.75941 2.29167 4.2168 113 108 101
3.71872 2.0774 4.85471 122 120 105
3.60991 2.59671 4.5556 178 170 160
3.75401 2.53668 4.43586 158 150 139
3.94462 1.74127 4.57834 165 164 146
3.83014 2.41074 3.76569 186 176 166
3.77089 2.51671 4.42355 155 147 136
3.72718 2.68121 5.00769 11 10 7
3.71642 2.67797 4.98377 14 13 9
3.71642 2.67797 4.98377 14 13 9
3.98288 1.69615 4.60701 112 113 97
3.26849 2.72136 4.45904 17 12 9
4.05517 1.66791 4.0962 138 134 121
3.54079 2.71126 4.18803 103 95 82
3.81439 2.44804 3.83542 150 138 122
3.59853 2.58623 4.90916 97 95 82
3.74557 2.56115 4.22934 172 162 153
3.98392 1.81408 4.18479 173 172 156
3.6928 2.18531 4.88985 147 143 118
3.5036 2.75053 4.41504 24 14 15
3.78544 2.31698 4.18139 161 153 142
3.82474 2.24229 4.08038 113 102 96
3.79674 2.38385 4.63166 85 81 67
4.00447 1.70814 4.65416 121 114 94
3.58893 2.74144 4.12285 8 4 3
3.83401 2.31239 4.05233 92 82 70
3.8444 1.94168 4.79489 186 183 165
3.77807 2.51125 4.21461 215 208 193
3.11382 2.84494 3.73248 2 1 0
3.89023 1.8292 4.73462 224 220 197
3.98779 2.01378 3.97279 255 241 224
3.76639 2.52617 4.38265 239 233 219
3.99303 2.05103 3.89403 166 152 145
4.07721 1.90878 3.87178 11 6 4
3.28091 2.71198 4.49467 22 18 14
3.87208 1.9385 4.53744 133 133 124
3.62098 2.47486 4.87891 168 167 144
3.26443 2.72139 4.40503 9 6 1
3.71753 2.38683 4.7185 173 171 157
3.93807 1.84887 4.47506 179 175 165
3.77498 2.41799 4.66303 96 93 78
3.75011 2.54186 4.49535 137 133 118
4.46421 2.65725 4.39999 12 8 7
3.58186 2.6787 4.84517 20 16 13
3.90727 2.26213 3.84937 152 142 134
3.18712 2.77208 4.26525 9 8 6
3.91073 2.18576 3.77908 170 161 158
3.72158 2.60749 3.86694 87 75 63
4.00246 1.56334 4.23665 160 155 151
3.20599 2.76108 4.27831 14 13 11
3.98242 1.68281 4.32837 143 141 128
4.1982 3.12334 4.71133 0 0 0
3.44544 2.61928 4.99543 22 19 15
3.54487 2.67019 5.00072 18 14 11
3.54899 2.60897 4.48281 180 170 157
4.20809 2.6618 4.72441 8 7 3
3.78711 2.51245 4.23042 215 206 196
3.53877 2.74431 4.55697 18 13 12
3.70612 2.19741 4.88485 128 127 104
3.82396 2.05359 4.82589 95 92 76
3.60306 2.85562 4.55635 7 1 1
3.71385 2.48554 3.89352 140 128 119
3.64323 2.56065 4.93808 130 124 109
4.0204 1.86642 4.03953 156 151 140
3.52129 2.62882 4.00432 201 190 184
3.53091 2.7057 4.26989 132 123 116
3.65682 2.53581 3.79232 127 115 109
3.83516 2.42267 3.71165 164 153 144
3.99797 1.91524 4.00893 145 137 128
3.8332 1.98878 4.71717 180 177 162
3.86974 1.9312 4.61012 171 169 154
3.80694 2.50695 4.21398 206 196 186
4.05418 1.54076 4.16961 157 149 127
3.96166 1.82217 4.37617 144 141 124
3.81757 2.43167 3.81068 143 133 121
3.70118 2.19609 4.84962 224 220 204
3.75316 2.62603 4.85461 129 126 113
3.8876 2.29064 3.76685 134 127 121
3.99249 1.6367 4.31523 152 153 139
3.7235 2.31299 4.69236 189 185 173
3.66966 2.259 4.83839 209 209 192
4.03699 1.73384 4.05919 135 129 115
4.01474 1.58507 4.24386 164 163 148
4.01942 1.66411 4.15604 195 192 176
3.99532 1.68902 4.27588 143 143 128
3.8932 1.81898 4.69088 138 136 115
4.00003 1.76827 4.14792 157 155 142
4.00777 1.70335 4.15812 163 162 147
3.92194 2.19111 3.78107 129 121 116
3.53302 2.74524 4.13181 18 10 10
3.9961 1.68354 4.22788 156 154 141
3.86247 1.88443 4.63241 158 159 143
3.91113 1.88232 4.48973 167 166 148
3.49335 2.69362 5.57281 0 0 0
3.70765 2.09081 4.84155 126 120 104
3.72253 2.0789 4.8195 183 177 161
3.7662 2.52175 4.51391 154 146 135
3.74208 2.53834 3.77447 168 164 157
3.90741 2.96772 4.87058 11 11 7
3.90139 2.6454 3.87949 176 163 154
3.60168 2.73604 4.08449 8 4 0
4.4249 3.11307 4.98887 14 6 7
4.15306 3.00163 4.63768 15 9 5
3.74825 2.04906 4.80667 144 140 128
3.26847 2.69692 4.53927 22 18 15
3.79634 2.50033 4.67285 20 16 15
3.7089 2.6377 3.91604 18 10 7
3.79541 2.48908 4.32997 96 88 72
4.50909 2.71888 4.66599 16 13 13
4.03111 1.97918 3.84275 175 162 154
3.99672 1.85746 4.16527 254 245 224
3.99113 1.91454 4.01176 152 142 133
3.773 2.54151 3.82616 77 70 62
3.82253 2.32992 3.7471 164 153 151
4.00338 1.8623 4.12594 126 115 105
3.97226 2.06584 3.83747 211 198 191
4.01934 1.95687 3.88178 209 200 188
3.52516 2.73245 4.08516 13 9 7
3.74455 2.63871 3.91785 96 90 87
3.86054 1.85897 4.73087 155 156 140
3.51068 2.74198 4.07648 8 4 1
3.88368 2.27501 3.71538 203 192 179
3.55218 2.59193 4.04364 169 167 154
3.70215 2.49405 3.79849 220 210 201
3.7678 2.50411 4.20831 198 189 180
3.94888 1.8203 4.46034 206 200 187
3.25114 2.806 4.00217 5 4 0
3.72893 2.04908 4.82319 148 145 130
3.78263 2.51477 4.27897 179 169 159
3.71107 2.65015 5.45529 0 0 0
3.956 1.76601 4.34208 146 144 129
3.76713 2.09409 4.33886 110 106 97
3.62832 2.67447 5.04665 2 0 1
3.6474 2.57592 3.9638 201 192 180
4.02542 1.66712 4.50753 198 197 174
3.97629 1.77007 4.4571 208 209 191
3.62156 2.59773 3.85047 7 3 1
3.72998 2.20932 4.87633 60 57 49
3.82194 1.98905 4.84201 122 121 102
3.87406 2.68125 4.77572 84 83 70
3.75779 2.55973 4.29556 135 126 118
3.73828 2.08367 4.87865 142 140 127
4.06008 1.54379 4.27235 8 1 0
3.98753 1.68488 4.32707 155 153 139
4.02547 1.58747 4.38527 140 141 125
3.55072 2.60779 3.98959 129 119 119
3.68481 2.3478 4.83563 143 139 128
3.9656 1.82778 4.30786 234 227 204
3.9656 1.82778 4.30786 234 227 204
3.75225 2.54871 4.39204 228 219 211
3.59626 2.59104 4.00926 139 126 117
3.85015 1.87091 4.79266 144 143 129
3.98919 1.82384 4.23911 137 131 114
3.97403 1.69152 4.5714 129 127 114
3.74382 2.05995 4.82021 203 200 185
3.74382 2.05995 4.82021 203 200 185
3.74957 2.06232 4.84563 149 146 132
3.93999 1.78934 4.51544 159 160 142
3.75876 2.0761 4.31491 111 108 101
3.77021 2.50285 4.41577 184 174 164
3.77021 2.50285 4.41577 184 174 164
3.59752 2.66865 5.0309 18 13 10
3.84374 2.63488 4.77059 94 94 86
3.83153 2.04431 4.76577 137 136 117
3.9932 1.69164 4.61298 146 146 123
3.70026 2.18173 4.89193 136 131 115
4.01369 1.88162 4.03991 164 161 148
3.77793 2.51476 4.21749 165 155 143
3.48853 2.63846 4.04523 139 126 111
2.59627 1.92193 6.67212 5 4 2
3.60359 2.47875 4.93439 9 6 2
4.38297 2.80266 4.30409 11 7 4
3.75347 2.50838 3.77841 162 150 135
4.02977 1.75556 4.10943 238 226 212
4.02977 1.75556 4.10943 238 226 212
3.7984 2.11918 4.09107 221 213 202
3.68001 2.53992 3.8092 222 212 203
3.53905 2.77481 4.33036 8 2 0
3.56519 3.01186 5.14009 12 11 7
3.89107 1.82711 4.73886 228 226 201
3.76947 2.20104 4.10604 167 158 149
3.76731 2.51322 4.44861 196 194 179
3.90547 2.22272 3.82828 110 101 98
4.29535 2.71399 4.02857 7 6 4
4.36371 2.73905 4.04397 5 4 2
3.73111 2.55784 4.53477 192 191 188
4.28485 2.72095 4.23338 97 87 70
3.91393 1.87704 4.44937 183 179 167
3.56024 2.58379 4.01543 183 179 167
4.01987 1.95848 3.88345 214 201 193
3.73948 2.55368 4.28517 138 131 114
3.32617 2.83585 3.77426 9 8 6
3.89493 2.31925 3.75665 98 93 88
3.31736 2.83317 3.79556 4 3 1
3.24638 2.70656 4.44509 12 9 4
3.75292 2.54974 4.47378 195 190 177
3.64 2.60769 4.19876 196 191 176
3.65864 2.59251 4.94489 76 72 61
3.82297 2.40469 3.61929 0 0 0
3.70094 2.44587 4.90134 143 139 128
3.76991 2.1164 4.88218 94 94 85
3.85538 2.05294 4.81412 71 70 58
4.22086 2.69672 4.77626 9 8 6
3.85685 1.95821 4.8628 79 77 63
3.85685 1.95821 4.8628 79 77 63
3.72325 2.57801 4.26009 228 221 213
3.70717 2.33756 4.85301 147 142 136
3.70726 2.67285 4.999 14 10 8
3.84617 1.96547 4.64188 130 130 119
3.83748 2.65151 4.76297 59 54 48
3.85239 1.87534 4.83566 110 108 93
3.54516 2.60349 3.94475 183 173 160
3.77675 2.05664 4.86265 121 118 106
3.69041 2.26366 4.90174 104 101 96
3.817 2.14658 4.81867 83 83 75
3.80941 2.39765 4.80683 100 97 90
3.85486 1.88017 4.87757 134 131 115
3.8505 2.40278 3.67618 143 133 119
3.7564 2.04074 4.85967 215 212 197
3.7564 2.04074 4.85967 215 212 197
3.5925 2.52433 4.84421 139 129 118
3.46577 2.72844 4.30318 16 12 11
3.80239 2.0866 4.83472 118 118 110
4.02834 1.68408 4.49493 137 138 120
3.67231 2.2153 4.89958 133 129 117
3.60164 2.52017 4.86101 151 147 136
3.56143 2.63916 5.2818 16 12 11
3.95304 1.74742 4.5836 127 126 109
3.79981 2.05676 4.81116 143 140 125
3.99102 1.69855 4.57068 136 137 122
3.58533 2.65861 4.87474 9 7 4
3.72419 2.22063 4.89482 88 85 80
3.67112 2.20531 4.88512 136 134 122
4.04053 1.57027 4.20731 130 129 114
3.99275 1.69417 4.35843 119 117 102
3.68905 2.19047 4.88949 144 141 126
3.73677 2.21277 4.52972 112 107 101
3.61089 2.56604 4.92109 126 117 111
3.88703 2.45771 4.71054 165 157 146
3.96214 2.5409 4.6301 107 103 91
3.58458 2.4861 4.85558 186 176 166
3.85189 2.11958 4.79747 113 113 104
3.77267 2.4548 4.88679 101 98 92
4.03694 1.5313 4.22077 183 175 141
4.03694 1.5313 4.22077 183 175 141
3.64194 2.56796 3.83192 135 126 112
3.73545 2.50702 3.76393 178 167 155
4.02768 2.39625 4.57528 94 94 86
3.56713 2.63441 4.97469 26 21 19
3.68264 2.17744 4.89781 215 211 200
3.75166 2.48201 4.92129 114 111 106
4.00746 1.65981 4.5406 193 192 172
3.82637 2.02756 4.8394 90 88 76
3.86729 2.1014 4.77994 107 107 99
3.47125 2.72268 4.20855 14 10 7
4.18499 2.59701 4.42043 162 163 149
3.7728 2.67371 4.94732 4 2 3
3.7166 2.51653 3.88775 134 126 115
3.88537 1.8113 4.73183 198 196 180
3.68301 2.18469 4.8487 113 109 98
4.00459 1.67253 4.59351 136 134 120
4.20784 2.60221 4.35137 106 105 93
3.80687 2.04193 4.81856 196 193 178
4.02082 1.66172 4.55981 117 115 100
3.76818 2.04989 4.86246 135 132 122
3.74959 2.50393 3.75136 148 139 130
3.1931 2.7696 4.25826 22 21 17
3.58446 2.64808 5.25508 11 6 8
